<?xml version="1.0" encoding="UTF-8" standalone="no"?>
<svg width="32px" height="23px" viewBox="0 0 32 23" version="1.1" xmlns="http://www.w3.org/2000/svg" xmlns:xlink="http://www.w3.org/1999/xlink" xmlns:sketch="http://www.bohemiancoding.com/sketch/ns">
    <!-- Generator: Sketch 3.4 (15575) - http://www.bohemiancoding.com/sketch -->
    <title>game-controller</title>
    <desc>Created with Sketch.</desc>
    <defs></defs>
    <g id="Kid-Views" stroke="none" stroke-width="1" fill="none" fill-rule="evenodd" sketch:type="MSPage">
        <g id="Dora-Theme-–-Screen-Time" sketch:type="MSArtboardGroup" transform="translate(-271.000000, -279.000000)" stroke-width="2" stroke="#D8D8D8">
            <g id="screen-content" sketch:type="MSLayerGroup" transform="translate(0.000000, 168.000000)">
                <g id="screen-content-row-1" transform="translate(18.000000, 101.000000)" sketch:type="MSShapeGroup">
                    <g id="game-controller" transform="translate(254.000000, 10.000000)">
                        <g id="Group">
                            <g id="Shape">
                                <path d="M15,8 L15,0"></path>
                                <path d="M23.2,8 L6.8,8 C3.1,8 0,11.1 0,15 C0,18.9 3.1,22 6.8,22 C9.6,22 11.9,20.5 13,18 L17,18 C18.1,20.5 20.4,22 23.2,22 C27,22 30,18.9 30,15 C30,11.1 26.9,8 23.2,8 L23.2,8 Z"></path>
                                <path d="M7,12 L7,18"></path>
                                <path d="M4,15 L10,15"></path>
                                <path d="M22,14 L24,12"></path>
                                <path d="M23,18 L25,16"></path>
                            </g>
                        </g>
                    </g>
                </g>
            </g>
        </g>
    </g>
</svg>
